<svg width="900" height="560" viewBox="0 0 900 560" fill="none" xmlns="http://www.w3.org/2000/svg">
  <defs>
    <linearGradient id="bg2" x1="20" y1="40" x2="860" y2="540" gradientUnits="userSpaceOnUse">
      <stop stop-color="#6A5435"/>
      <stop offset="1" stop-color="#8A734A"/>
    </linearGradient>
  </defs>
  <rect width="900" height="560" rx="30" fill="url(#bg2)"/>
  <rect x="72" y="86" width="756" height="388" rx="26" fill="#F1E5CD" fill-opacity="0.1" stroke="#CFB07A" stroke-opacity="0.6"/>
  <text x="108" y="148" fill="#F8EFDD" font-size="22" letter-spacing="2">EV ADOPTION ANALYSIS</text>
  <path d="M122 376 L122 210" stroke="#D8BA87" stroke-width="3" stroke-linecap="round"/>
  <path d="M120 376 L760 376" stroke="#D8BA87" stroke-width="3" stroke-linecap="round"/>
  <rect x="168" y="304" width="64" height="72" rx="8" fill="#D5B47E" fill-opacity="0.6"/>
  <rect x="264" y="260" width="64" height="116" rx="8" fill="#D5B47E" fill-opacity="0.6"/>
  <rect x="360" y="230" width="64" height="146" rx="8" fill="#D5B47E" fill-opacity="0.6"/>
  <rect x="456" y="192" width="64" height="184" rx="8" fill="#D5B47E" fill-opacity="0.6"/>
  <rect x="552" y="162" width="64" height="214" rx="8" fill="#D5B47E" fill-opacity="0.6"/>
  <rect x="648" y="132" width="64" height="244" rx="8" fill="#D5B47E" fill-opacity="0.6"/>
  <path d="M168 302 C248 230 312 236 392 196 C456 164 560 156 648 130" stroke="#F5E7C8" stroke-width="5" stroke-linecap="round"/>
  <circle cx="168" cy="302" r="6" fill="#FFF4DE"/>
  <circle cx="392" cy="196" r="6" fill="#FFF4DE"/>
  <circle cx="648" cy="130" r="6" fill="#FFF4DE"/>
  <text x="528" y="436" fill="#E9D5B1" font-size="20">Trend storytelling with Python and charts</text>
</svg>
