<svg width="900" height="560" viewBox="0 0 900 560" fill="none" xmlns="http://www.w3.org/2000/svg">
  <defs>
    <linearGradient id="bg" x1="40" y1="20" x2="860" y2="540" gradientUnits="userSpaceOnUse">
      <stop stop-color="#5F4A2D"/>
      <stop offset="1" stop-color="#7E6944"/>
    </linearGradient>
    <linearGradient id="card" x1="540" y1="120" x2="790" y2="380" gradientUnits="userSpaceOnUse">
      <stop stop-color="#B7925B" stop-opacity="0.38"/>
      <stop offset="1" stop-color="#D5BB8C" stop-opacity="0.2"/>
    </linearGradient>
  </defs>
  <rect x="0" y="0" width="900" height="560" rx="30" fill="url(#bg)"/>
  <circle cx="180" cy="160" r="124" fill="#9B7B4B" fill-opacity="0.28"/>
  <circle cx="760" cy="430" r="150" fill="#E8D1A8" fill-opacity="0.16"/>
  <rect x="75" y="92" width="350" height="318" rx="24" fill="#ECE0C8" fill-opacity="0.1" stroke="#D8BE90" stroke-opacity="0.5"/>
  <text x="96" y="138" fill="#F7EEDB" font-size="24" letter-spacing="1.5">SENTIMENT OVERVIEW</text>
  <path d="M110 334 C170 250 230 320 285 246 C340 172 386 254 402 210" stroke="#DDBB81" stroke-width="6" stroke-linecap="round"/>
  <circle cx="111" cy="334" r="7" fill="#F6E8CA"/>
  <circle cx="286" cy="246" r="7" fill="#F6E8CA"/>
  <circle cx="402" cy="210" r="7" fill="#F6E8CA"/>
  <rect x="520" y="125" width="290" height="260" rx="28" fill="url(#card)" stroke="#D4B786" stroke-opacity="0.6"/>
  <text x="555" y="195" fill="#F7EEDB" font-size="50" font-family="Georgia">EmotionScope</text>
  <text x="555" y="238" fill="#E6D2AC" font-size="20">Fast text classification pipeline</text>
  <text x="555" y="273" fill="#E6D2AC" font-size="20">for positive, neutral and negative</text>
  <text x="555" y="308" fill="#E6D2AC" font-size="20">prediction flows.</text>
  <rect x="555" y="338" width="86" height="32" rx="16" stroke="#D4B786"/>
  <text x="579" y="360" fill="#F3E6CC" font-size="14" letter-spacing="1">ML</text>
  <rect x="652" y="338" width="116" height="32" rx="16" stroke="#D4B786"/>
  <text x="674" y="360" fill="#F3E6CC" font-size="14" letter-spacing="1">NLP</text>
</svg>
